<?xml version="1.0" encoding="UTF-8" standalone="no"?>
<!-- Generated by Microsoft Visio, SVG Export Logo_final.svg Page-1 -->
<svg
	xmlns:v="http://schemas.microsoft.com/visio/2003/SVGExtensions/"
	xmlns:dc="http://purl.org/dc/elements/1.1/"
	xmlns:cc="http://creativecommons.org/ns#"
	xmlns:rdf="http://www.w3.org/1999/02/22-rdf-syntax-ns#"
	xmlns:svg="http://www.w3.org/2000/svg"
	xmlns="http://www.w3.org/2000/svg"
	xmlns:sodipodi="http://sodipodi.sourceforge.net/DTD/sodipodi-0.dtd"
	xmlns:inkscape="http://www.inkscape.org/namespaces/inkscape"
   width="262"
   height="102"
   viewBox="0 0 196.5 76.5"
   xml:space="preserve"
   class="st7"
   version="1.1"
   id="svg42"
   sodipodi:docname="ontodia_logo_final.svg"
   style="font-size:12px;overflow:visible;color-interpolation-filters:sRGB;fill:none;fill-rule:evenodd;stroke-linecap:square;stroke-miterlimit:3"
   inkscape:version="0.92.2 5c3e80d, 2017-08-06">
	<metadata
     id="metadata48">
		<rdf:RDF>
			<cc:Work
         rdf:about="">
				<dc:format>image/svg+xml</dc:format>
				<dc:type
           rdf:resource="http://purl.org/dc/dcmitype/StillImage" />
				<dc:title />
			</cc:Work>
		</rdf:RDF>
	</metadata>
	<defs
     id="defs46" />
	<sodipodi:namedview
     pagecolor="#ffffff"
     bordercolor="#666666"
     borderopacity="1"
     objecttolerance="10"
     gridtolerance="10"
     guidetolerance="10"
     inkscape:pageopacity="0"
     inkscape:pageshadow="2"
     inkscape:window-width="1382"
     inkscape:window-height="855"
     id="namedview44"
     showgrid="false"
     units="px"
     inkscape:zoom="1.7018852"
     inkscape:cx="-54.776563"
     inkscape:cy="89.096783"
     inkscape:window-x="324"
     inkscape:window-y="1080"
     inkscape:window-maximized="0"
     inkscape:current-layer="layer1"
     inkscape:snap-text-baseline="true" />
	<v:documentProperties
     v:langID="1049"
     v:metric="true"
     v:viewMarkup="false" />
	<style
     type="text/css"
     id="style2">
		<![CDATA[
		.st1 {fill:#005493;stroke:#005493;stroke-linecap:round;stroke-linejoin:round;stroke-width:3.5}
		.st2 {stroke:#005493;stroke-linecap:round;stroke-linejoin:round;stroke-width:3.5}
		.st3 {fill:#005493;stroke:#005493;stroke-linecap:round;stroke-linejoin:round;stroke-opacity:0.96;stroke-width:0.25}
		.st4 {fill:#ffffff;stroke:#005493;stroke-linecap:round;stroke-linejoin:round;stroke-width:3.5}
		.st5 {fill:none;stroke:none;stroke-linecap:round;stroke-linejoin:round;stroke-width:0.75}
		.st6 {fill:#ffffff;font-family:Tw Cen MT Condensed;font-size:4.99999em}
		.st7 {fill:none;fill-rule:evenodd;font-size:12px;overflow:visible;stroke-linecap:square;stroke-miterlimit:3}
	]]>
	</style>
	<g
     inkscape:groupmode="layer"
     id="layer1"
     inkscape:label="Layer 1">
		<flowRoot
       xml:space="preserve"
       id="flowRoot4522"
       style="font-style:normal;font-weight:normal;font-size:40px;line-height:1.25;font-family:sans-serif;letter-spacing:0px;word-spacing:0px;fill:#000000;fill-opacity:1;stroke:none"
       transform="scale(0.74999826)">
			<flowRegion
         id="flowRegion4524">
				<rect
           id="rect4526"
           width="336.68546"
           height="180.97578"
           x="-35.25502"
           y="-39.020088" />
			</flowRegion>
			<flowPara
         id="flowPara4528" />
		</flowRoot>
		<g
       id="g867">
			<g
         id="shape1-1"
         v:mID="1"
         v:groupContext="shape"
         transform="matrix(1.05833,0,0,1.05833,120.74972,-5.7372661)"
         style="font-size:medium;color-interpolation-filters:sRGB;fill:none;fill-rule:evenodd;stroke-linecap:square;stroke-miterlimit:3">
				<title
           id="title6">Sheet.1</title>
				<path
           inkscape:connector-curvature="0"
           id="ellipse8"
           d="M 70.866203,41.562801 A 35.433102,35.433102 0 0 1 35.433102,76.995903 35.433102,35.433102 0 0 1 0,41.562801 35.433102,35.433102 0 0 1 35.433102,6.1296997 35.433102,35.433102 0 0 1 70.866203,41.562801 Z"
           style="fill:#005493;stroke:#005493;stroke-width:0;stroke-linecap:round;stroke-linejoin:round;stroke-miterlimit:3;stroke-dasharray:none" />
			</g>
			<g
         id="shape4-9"
         v:mID="4"
         v:groupContext="shape"
         transform="matrix(0.92015939,0,0,1.0805089,38.366823,-7.5778268)"
         style="font-size:medium;color-interpolation-filters:sRGB;fill:none;fill-rule:evenodd;stroke-linecap:square;stroke-miterlimit:3">
				<title
           id="title21">Sheet.4</title>
				<path
           inkscape:connector-curvature="0"
           id="rect23"
           d="M 0,7.8305202 H 130.158 V 76.995918 H 0 Z"
           style="fill:#005493;stroke:#005493;stroke-width:0.25;stroke-linecap:round;stroke-linejoin:round;stroke-opacity:0.95999995" />
			</g>
			<g
         transform="matrix(1.05833,0,0,1.05833,0.74999879,-5.7372661)"
         v:groupContext="shape"
         v:mID="1"
         id="g4599"
         style="font-size:medium;color-interpolation-filters:sRGB;fill:none;fill-rule:evenodd;stroke-linecap:square;stroke-miterlimit:3">
				<title
           id="title4595">Sheet.1</title>
				<path
           style="fill:#005493;stroke:#005493;stroke-width:0;stroke-linecap:round;stroke-linejoin:round;stroke-miterlimit:3;stroke-dasharray:none"
           d="M 70.866203,41.562801 A 35.433102,35.433102 0 0 1 35.433102,76.995903 35.433102,35.433102 0 0 1 0,41.562801 35.433102,35.433102 0 0 1 35.433102,6.1296997 35.433102,35.433102 0 0 1 70.866203,41.562801 Z"
           id="path4597"
           inkscape:connector-curvature="0" />
			</g>
			<circle
         r="33.74992"
         style="font-size:medium;color-interpolation-filters:sRGB;fill:#ffffff;fill-rule:evenodd;stroke:#005493;stroke-width:0;stroke-linecap:round;stroke-linejoin:round;stroke-miterlimit:3;stroke-dasharray:none"
         id="ellipse28"
         class="st4"
         cy="38.249912"
         cx="38.249908" />
		</g>
		<g
       aria-label="ntodia"
       transform="scale(0.98480417,1.0154303)"
       style="font-style:normal;font-variant:normal;font-weight:normal;font-stretch:normal;font-size:56.2976532px;line-height:1.25;font-family:'Tw Cen MT Condensed';-inkscape-font-specification:'Tw Cen MT Condensed, Normal';font-variant-ligatures:normal;font-variant-caps:normal;font-variant-numeric:normal;font-feature-settings:normal;text-align:start;letter-spacing:0px;word-spacing:0px;writing-mode:lr-tb;text-anchor:start;fill:#000000;fill-opacity:1;stroke:none;stroke-width:2.17098069;stroke-miterlimit:3;stroke-dasharray:none;stroke-opacity:0.9908257"
       id="text4532">
			<path
         d="m 85.998988,26.426634 v 2.309084 h 0.109956 q 1.731812,-2.638953 4.673145,-2.638953 5.222927,0 5.222927,5.690242 V 50.534565 H 91.551783 V 33.078994 q 0,-3.546093 -2.803887,-3.546093 -1.291987,0 -2.061681,0.962118 -0.742206,0.934629 -0.742206,2.583975 v 17.455571 h -4.50821 V 26.426634 Z"
         style="font-style:normal;font-variant:normal;font-weight:normal;font-stretch:normal;font-size:56.2976532px;font-family:'Tw Cen MT Condensed';-inkscape-font-specification:'Tw Cen MT Condensed, Normal';font-variant-ligatures:normal;font-variant-caps:normal;font-variant-numeric:normal;font-feature-settings:normal;text-align:start;writing-mode:lr-tb;text-anchor:start;fill:#ffffff;stroke:none;stroke-width:2.17098069;stroke-miterlimit:3;stroke-dasharray:none;stroke-opacity:0.9908257"
         id="path830"
         inkscape:connector-curvature="0" />
			<path
         d="m 110.6567,30.055194 h -2.91384 v 20.479371 h -4.50821 V 30.055194 h -2.88636 v -3.546092 h 2.88636 v -6.542403 h 4.50821 v 6.542403 h 2.91384 z"
         style="font-style:normal;font-variant:normal;font-weight:normal;font-stretch:normal;font-size:56.2976532px;font-family:'Tw Cen MT Condensed';-inkscape-font-specification:'Tw Cen MT Condensed, Normal';font-variant-ligatures:normal;font-variant-caps:normal;font-variant-numeric:normal;font-feature-settings:normal;text-align:start;writing-mode:lr-tb;text-anchor:start;fill:#ffffff;stroke:none;stroke-width:2.17098069;stroke-miterlimit:3;stroke-dasharray:none;stroke-opacity:0.9908257"
         id="path832"
         inkscape:connector-curvature="0" />
			<path
         d="m 122.22961,26.096765 q 3.43613,0 5.5253,2.611464 2.08917,2.611463 2.08917,10.115984 0,7.037207 -2.19912,9.538714 -2.17164,2.501507 -5.36038,2.501507 -3.98591,0 -5.91015,-2.996311 -1.92424,-2.99631 -1.92424,-9.208844 0,-7.614478 2.19913,-10.088496 2.19913,-2.474018 5.47033,-2.474018 z m 2.83137,13.854501 q 0,-6.130067 -0.57727,-8.13677 -0.57727,-2.006704 -2.30908,-2.006704 -1.64935,0 -2.25411,1.566878 -0.60476,1.566878 -0.60476,5.305394 0,7.284609 0.65974,8.906465 0.68723,1.621856 2.25411,1.621856 1.67683,0 2.2541,-1.621856 0.57727,-1.649345 0.57727,-5.635263 z"
         style="font-style:normal;font-variant:normal;font-weight:normal;font-stretch:normal;font-size:56.2976532px;font-family:'Tw Cen MT Condensed';-inkscape-font-specification:'Tw Cen MT Condensed, Normal';font-variant-ligatures:normal;font-variant-caps:normal;font-variant-numeric:normal;font-feature-settings:normal;text-align:start;writing-mode:lr-tb;text-anchor:start;fill:#ffffff;stroke:none;stroke-width:2.17098069;stroke-miterlimit:3;stroke-dasharray:none;stroke-opacity:0.9908257"
         id="path834"
         inkscape:connector-curvature="0" />
			<path
         d="m 145.73278,14.276457 h 4.48072 v 36.258108 h -4.42574 v -3.216223 h -0.10996 q -1.62186,3.546092 -4.61817,3.546092 -1.7593,0 -3.24371,-1.182031 -1.45692,-1.182031 -2.03419,-3.29869 -0.57727,-2.11666 -0.57727,-7.064696 0,-5.635263 0.4948,-8.054303 0.4948,-2.446529 1.89675,-3.793494 1.40194,-1.374455 3.57358,-1.374455 2.83138,0 4.45323,3.216224 h 0.10996 z m 0.055,23.860529 q 0,-4.453232 -0.57727,-6.295001 -0.54979,-1.869258 -2.25411,-1.869258 -1.70432,0 -2.33657,1.951725 -0.63225,1.951725 -0.63225,6.459936 0,4.673145 0.57727,6.679848 0.60476,1.979215 2.28159,1.979215 1.64935,0 2.2816,-2.061682 0.65974,-2.089171 0.65974,-6.844783 z"
         style="font-style:normal;font-variant:normal;font-weight:normal;font-stretch:normal;font-size:56.2976532px;font-family:'Tw Cen MT Condensed';-inkscape-font-specification:'Tw Cen MT Condensed, Normal';font-variant-ligatures:normal;font-variant-caps:normal;font-variant-numeric:normal;font-feature-settings:normal;text-align:start;writing-mode:lr-tb;text-anchor:start;fill:#ffffff;stroke:none;stroke-width:2.17098069;stroke-miterlimit:3;stroke-dasharray:none;stroke-opacity:0.9908257"
         id="path836"
         inkscape:connector-curvature="0" />
			<path
         d="m 155.98621,19.169515 q 0,-0.989607 0.71471,-1.731813 0.74221,-0.742205 1.7593,-0.742205 1.0171,0 1.73182,0.742205 0.7422,0.742206 0.7422,1.731813 0,1.017096 -0.7422,1.759302 -0.71472,0.714716 -1.73182,0.714716 -1.04458,0 -1.7593,-0.714716 -0.71471,-0.742206 -0.71471,-1.759302 z m 0.21991,7.339587 h 4.45323 v 24.025463 h -4.45323 z"
         style="font-style:normal;font-variant:normal;font-weight:normal;font-stretch:normal;font-size:56.2976532px;font-family:'Tw Cen MT Condensed';-inkscape-font-specification:'Tw Cen MT Condensed, Normal';font-variant-ligatures:normal;font-variant-caps:normal;font-variant-numeric:normal;font-feature-settings:normal;text-align:start;writing-mode:lr-tb;text-anchor:start;fill:#ffffff;stroke:none;stroke-width:2.17098069;stroke-miterlimit:3;stroke-dasharray:none;stroke-opacity:0.9908257"
         id="path838"
         inkscape:connector-curvature="0" />
			<path
         d="m 181.22119,50.534565 h -4.48072 v -2.913843 h -0.13745 q -1.73181,3.243712 -4.48072,3.243712 -2.33657,0 -4.12336,-2.171638 -1.78679,-2.199127 -1.78679,-9.813605 0,-6.762315 1.34696,-9.731137 1.34697,-2.996311 4.61817,-2.996311 1.53939,0 2.47402,0.714717 0.96211,0.714716 1.95172,2.281594 h 0.13745 v -2.638952 h 4.48072 z m -7.36708,-3.601071 q 1.73182,0 2.30909,-2.061681 0.57727,-2.061682 0.57727,-7.009718 0,-4.343276 -0.5223,-6.102577 -0.52229,-1.786791 -2.19912,-1.786791 -1.67684,0 -2.33658,1.649345 -0.63224,1.649345 -0.63224,5.965132 0,5.085482 0.4948,7.229631 0.52229,2.116659 2.30908,2.116659 z"
         style="font-style:normal;font-variant:normal;font-weight:normal;font-stretch:normal;font-size:56.2976532px;font-family:'Tw Cen MT Condensed';-inkscape-font-specification:'Tw Cen MT Condensed, Normal';font-variant-ligatures:normal;font-variant-caps:normal;font-variant-numeric:normal;font-feature-settings:normal;text-align:start;writing-mode:lr-tb;text-anchor:start;fill:#ffffff;stroke:none;stroke-width:2.17098069;stroke-miterlimit:3;stroke-dasharray:none;stroke-opacity:0.9908257"
         id="path840"
         inkscape:connector-curvature="0" />
		</g>
	</g>
</svg>